# xmcd
#
# Track frame offsets:
# 182
# 12252
# 21622
# 34185
# 47317
# 60440
# 72632
# 86695
# 99410
# 110360
# 120965
# 133220
# 144602
# 161492
# 174355
# 185150
# 196760
# 210480
# 223570
# 236645
# 262780
# 275090
# 290485
# 308395
#
# Disc length: 4256 seconds
#
# Revision: 1
# Processed by: cddbd v1.5.1PL0 Copyright (c) Steve Scherf et al.
# Submitted via: CedeCatalogueitor 2.6.0.6 http://personales.ya.com/cdcatalogueitor
#
DISCID=56109e18
DTITLE=Chess - The Chicago Sound
DYEAR=1992
DGENRE=
TTITLE0=You Are Not That Kind Of Girl
TTITLE1=Bye Bye Johnny
TTITLE2=I'm A Man
TTITLE3=Rinky Dink
TTITLE4=Manish Boy
TTITLE5=In The Mood
TTITLE6=Smokestack Lightning
TTITLE7=Walking By Myself
TTITLE8=Madison Blues
TTITLE9=Please Send Me Someone To Love
TTITLE10=Bad Girl
TTITLE11=The Watusi
TTITLE12=I Has A Talk With My Man
TTITLE13=See You Later Alligator
TTITLE14=Sneakin' Around
TTITLE15=Searching For My Love
TTITLE16=I Want To Know
TTITLE17=Dirty Man
TTITLE18=Rescue Me
TTITLE19=The In Crowd
TTITLE20=Summertime
TTITLE21=Selfish One
TTITLE22=Oh What A Night
TTITLE23=Tel Mama
EXTD=
EXTT0=
EXTT1=
EXTT2=
EXTT3=
EXTT4=
EXTT5=
EXTT6=
EXTT7=
EXTT8=
EXTT9=
EXTT10=
EXTT11=
EXTT12=
EXTT13=
EXTT14=
EXTT15=
EXTT16=
EXTT17=
EXTT18=
EXTT19=
EXTT20=
EXTT21=
EXTT22=
EXTT23=
PLAYORDER=
